<?xml version="1.0" encoding="UTF-8"?>
<svg xmlns="http://www.w3.org/2000/svg" xmlns:xlink="http://www.w3.org/1999/xlink" viewBox="0 0 25 25" width="32px" height="32px">
<g id="surface62752076">
<path style="fill-rule:nonzero;fill:rgb(0%,0%,0%);fill-opacity:1;stroke-width:10;stroke-linecap:butt;stroke-linejoin:round;stroke:rgb(100%,100%,100%);stroke-opacity:1;stroke-miterlimit:10;" d="M 151.361602 48.91136 C 147.766857 54.274949 143.202101 58.982353 137.981161 62.776807 C 138.009691 63.946525 138.038221 65.087714 138.038221 66.257433 C 138.038221 101.691351 111.077631 142.545917 61.749737 142.545917 C 46.600453 142.545917 26.857883 137.239388 20.638403 130.506373 C 22.749603 130.763141 24.889332 130.87726 27.029061 130.87726 C 39.61067 130.87726 51.165209 126.597801 60.35178 119.40831 C 48.597533 119.180073 38.697719 111.419987 35.302682 100.7784 C 40.63774 101.605762 47.399285 100.321925 47.399285 100.321925 C 47.399285 100.321925 26.429937 96.698649 25.887872 73.675162 C 31.964704 77.184318 38.041535 77.041669 38.041535 77.041669 C 38.041535 77.041669 25.944932 69.595411 26.11611 54.702895 C 26.201699 45.944269 29.739385 41.236864 29.739385 41.236864 C 52.648754 69.452762 85.001462 69.253054 85.001462 69.253054 C 85.001462 69.253054 84.316749 65.230363 84.316749 63.147693 C 84.316749 48.340766 96.327763 36.329752 111.13469 36.329752 C 118.837716 36.329752 125.827499 39.58214 130.706081 44.80308 C 136.811443 43.576302 142.574447 41.350983 147.738327 38.269773 C 145.39889 47.656052 135.955551 53.13376 135.955551 53.13376 C 135.955551 53.13376 144.029463 52.220808 151.361602 48.91136 Z M 34.560909 133.844351 C 85.315289 153.187505 133.673173 117.610938 134.614654 66.257433 C 134.614654 65.800957 134.500535 64.317412 134.529065 63.033574 C 134.586124 61.43591 135.099659 60.637077 136.212318 59.781186 C 137.324978 58.896764 138.722934 57.869694 139.949712 56.842624 C 140.349128 56.471737 140.120891 55.815554 139.664415 55.844083 C 135.869962 55.986732 133.188168 55.815554 131.362265 55.729965 C 130.249606 55.672905 129.564892 54.16083 130.534903 53.361997 C 132.246687 51.964041 134.871421 49.909901 138.009691 47.171047 C 138.437637 46.800161 138.266459 46.372215 137.724394 46.543393 C 135.442016 47.285166 133.188168 47.798701 131.619033 48.141058 C 130.335195 48.397825 129.336655 48.226647 128.480763 47.285166 C 124.62925 43.034237 118.095943 39.753319 111.13469 39.753319 C 95.757169 39.753319 87.768846 52.648754 87.768846 63.147693 C 87.768846 65.173304 88.139732 67.398622 88.482089 69.195995 C 88.995624 71.906319 87.768846 72.990448 85.001462 72.81927 C 75.016059 72.220146 50.02402 68.539811 30.680866 47.513404 C 26.344348 62.035034 35.416801 71.136016 41.179805 75.386945 C 43.376594 76.98461 43.119826 79.466696 39.753319 79.866112 C 37.157114 80.179939 33.819136 80.208469 29.910564 79.095809 C 31.793525 91.392121 45.373674 96.356293 51.564625 98.125136 C 52.962581 98.524552 53.761414 100.436043 51.250798 101.948119 C 49.082539 103.260486 45.773091 104.515794 40.837448 104.686972 C 45.630442 112.875003 55.444667 115.014733 62.320331 116.013273 C 65.373012 116.441219 66.628319 119.46537 63.347401 121.975986 C 57.21351 126.68339 47.085458 132.503454 34.560909 133.844351 Z M 34.560909 133.844351 " transform="matrix(0.136919,0,0,0.136919,0.725,0.725)"/>
<path style=" stroke:none;fill-rule:nonzero;fill:rgb(100%,100%,100%);fill-opacity:1;" d="M 21.449219 7.421875 C 20.957031 8.15625 20.332031 8.800781 19.617188 9.320312 C 19.621094 9.480469 19.625 9.636719 19.625 9.796875 C 19.625 14.648438 15.933594 20.242188 9.179688 20.242188 C 7.105469 20.242188 4.402344 19.515625 3.550781 18.59375 C 3.839844 18.628906 4.132812 18.644531 4.425781 18.644531 C 6.148438 18.644531 7.730469 18.058594 8.988281 17.074219 C 7.378906 17.042969 6.023438 15.980469 5.558594 14.523438 C 6.289062 14.636719 7.214844 14.460938 7.214844 14.460938 C 7.214844 14.460938 4.34375 13.964844 4.269531 10.8125 C 5.101562 11.292969 5.933594 11.273438 5.933594 11.273438 C 5.933594 11.273438 4.277344 10.253906 4.300781 8.214844 C 4.3125 7.015625 4.796875 6.371094 4.796875 6.371094 C 7.933594 10.234375 12.363281 10.207031 12.363281 10.207031 C 12.363281 10.207031 12.269531 9.65625 12.269531 9.371094 C 12.269531 7.34375 13.914062 5.699219 15.941406 5.699219 C 16.996094 5.699219 17.953125 6.144531 18.621094 6.859375 C 19.457031 6.691406 20.246094 6.386719 20.953125 5.964844 C 20.632812 7.25 19.339844 8 19.339844 8 C 19.339844 8 20.445312 7.875 21.449219 7.421875 Z M 5.457031 19.050781 C 12.40625 21.699219 19.027344 16.828125 19.15625 9.796875 C 19.15625 9.734375 19.140625 9.53125 19.144531 9.355469 C 19.152344 9.136719 19.222656 9.027344 19.375 8.910156 C 19.527344 8.789062 19.71875 8.648438 19.886719 8.507812 C 19.941406 8.457031 19.910156 8.367188 19.847656 8.371094 C 19.328125 8.390625 18.960938 8.367188 18.710938 8.355469 C 18.558594 8.347656 18.464844 8.140625 18.597656 8.03125 C 18.832031 7.839844 19.191406 7.558594 19.621094 7.183594 C 19.679688 7.132812 19.65625 7.074219 19.582031 7.097656 C 19.269531 7.199219 18.960938 7.269531 18.746094 7.316406 C 18.570312 7.351562 18.433594 7.328125 18.316406 7.199219 C 17.789062 6.617188 16.894531 6.167969 15.941406 6.167969 C 13.835938 6.167969 12.742188 7.933594 12.742188 9.371094 C 12.742188 9.648438 12.792969 9.953125 12.839844 10.199219 C 12.910156 10.570312 12.742188 10.71875 12.363281 10.695312 C 10.996094 10.613281 7.574219 10.109375 4.925781 7.230469 C 4.332031 9.21875 5.574219 10.464844 6.363281 11.046875 C 6.664062 11.265625 6.628906 11.605469 6.167969 11.660156 C 5.8125 11.703125 5.355469 11.707031 4.820312 11.554688 C 5.078125 13.238281 6.9375 13.917969 7.785156 14.160156 C 7.976562 14.214844 8.085938 14.476562 7.742188 14.683594 C 7.445312 14.863281 6.992188 15.035156 6.316406 15.058594 C 6.972656 16.179688 8.316406 16.472656 9.257812 16.609375 C 9.675781 16.667969 9.847656 17.082031 9.398438 17.425781 C 8.558594 18.070312 7.171875 18.867188 5.457031 19.050781 Z M 5.457031 19.050781 "/>
</g>
</svg>
