<svg id="visual" viewBox="0 0 900 675" width="900" height="675" xmlns="http://www.w3.org/2000/svg" xmlns:xlink="http://www.w3.org/1999/xlink" version="1.1"><path d="M0 276L18.8 274C37.7 272 75.3 268 112.8 262.2C150.3 256.3 187.7 248.7 225.2 248C262.7 247.3 300.3 253.7 337.8 255.8C375.3 258 412.7 256 450.2 261.2C487.7 266.3 525.3 278.7 562.8 289.3C600.3 300 637.7 309 675.2 305C712.7 301 750.3 284 787.8 273.7C825.3 263.3 862.7 259.7 881.3 257.8L900 256L900 0L881.3 0C862.7 0 825.3 0 787.8 0C750.3 0 712.7 0 675.2 0C637.7 0 600.3 0 562.8 0C525.3 0 487.7 0 450.2 0C412.7 0 375.3 0 337.8 0C300.3 0 262.7 0 225.2 0C187.7 0 150.3 0 112.8 0C75.3 0 37.7 0 18.8 0L0 0Z" fill="#fa7268"></path><path d="M0 276L18.8 261.8C37.7 247.7 75.3 219.3 112.8 206C150.3 192.7 187.7 194.3 225.2 207.8C262.7 221.3 300.3 246.7 337.8 250.3C375.3 254 412.7 236 450.2 231.5C487.7 227 525.3 236 562.8 230.7C600.3 225.3 637.7 205.7 675.2 205.3C712.7 205 750.3 224 787.8 233.2C825.3 242.3 862.7 241.7 881.3 241.3L900 241L900 0L881.3 0C862.7 0 825.3 0 787.8 0C750.3 0 712.7 0 675.2 0C637.7 0 600.3 0 562.8 0C525.3 0 487.7 0 450.2 0C412.7 0 375.3 0 337.8 0C300.3 0 262.7 0 225.2 0C187.7 0 150.3 0 112.8 0C75.3 0 37.7 0 18.8 0L0 0Z" fill="#f16367"></path><path d="M0 162L18.8 172.5C37.7 183 75.3 204 112.8 212.3C150.3 220.7 187.7 216.3 225.2 204.8C262.7 193.3 300.3 174.7 337.8 175.3C375.3 176 412.7 196 450.2 202.5C487.7 209 525.3 202 562.8 200.2C600.3 198.3 637.7 201.7 675.2 200C712.7 198.3 750.3 191.7 787.8 190.8C825.3 190 862.7 195 881.3 197.5L900 200L900 0L881.3 0C862.7 0 825.3 0 787.8 0C750.3 0 712.7 0 675.2 0C637.7 0 600.3 0 562.8 0C525.3 0 487.7 0 450.2 0C412.7 0 375.3 0 337.8 0C300.3 0 262.7 0 225.2 0C187.7 0 150.3 0 112.8 0C75.3 0 37.7 0 18.8 0L0 0Z" fill="#e85467"></path><path d="M0 177L18.8 171C37.7 165 75.3 153 112.8 143.3C150.3 133.7 187.7 126.3 225.2 132.2C262.7 138 300.3 157 337.8 155.5C375.3 154 412.7 132 450.2 121.2C487.7 110.3 525.3 110.7 562.8 119C600.3 127.3 637.7 143.7 675.2 143.3C712.7 143 750.3 126 787.8 122.2C825.3 118.3 862.7 127.7 881.3 132.3L900 137L900 0L881.3 0C862.7 0 825.3 0 787.8 0C750.3 0 712.7 0 675.2 0C637.7 0 600.3 0 562.8 0C525.3 0 487.7 0 450.2 0C412.7 0 375.3 0 337.8 0C300.3 0 262.7 0 225.2 0C187.7 0 150.3 0 112.8 0C75.3 0 37.7 0 18.8 0L0 0Z" fill="#de4467"></path><path d="M0 81L18.8 88.5C37.7 96 75.3 111 112.8 117.8C150.3 124.7 187.7 123.3 225.2 119.2C262.7 115 300.3 108 337.8 101.5C375.3 95 412.7 89 450.2 88.2C487.7 87.3 525.3 91.7 562.8 90.2C600.3 88.7 637.7 81.3 675.2 83.7C712.7 86 750.3 98 787.8 103.3C825.3 108.7 862.7 107.3 881.3 106.7L900 106L900 0L881.3 0C862.7 0 825.3 0 787.8 0C750.3 0 712.7 0 675.2 0C637.7 0 600.3 0 562.8 0C525.3 0 487.7 0 450.2 0C412.7 0 375.3 0 337.8 0C300.3 0 262.7 0 225.2 0C187.7 0 150.3 0 112.8 0C75.3 0 37.7 0 18.8 0L0 0Z" fill="#d23467"></path><path d="M0 75L18.8 70.8C37.7 66.7 75.3 58.3 112.8 53.7C150.3 49 187.7 48 225.2 53C262.7 58 300.3 69 337.8 72C375.3 75 412.7 70 450.2 62.7C487.7 55.3 525.3 45.7 562.8 45.3C600.3 45 637.7 54 675.2 58.3C712.7 62.7 750.3 62.3 787.8 61.5C825.3 60.7 862.7 59.3 881.3 58.7L900 58L900 0L881.3 0C862.7 0 825.3 0 787.8 0C750.3 0 712.7 0 675.2 0C637.7 0 600.3 0 562.8 0C525.3 0 487.7 0 450.2 0C412.7 0 375.3 0 337.8 0C300.3 0 262.7 0 225.2 0C187.7 0 150.3 0 112.8 0C75.3 0 37.7 0 18.8 0L0 0Z" fill="#c62368"></path></svg>